<svg xmlns="http://www.w3.org/2000/svg" viewBox="0 0 2500 2500">
  <circle cx="1250" cy="1250" r="1250" fill="#0052FF"/>
  <path d="M1248.93 388.315C830.378 388.315 491 727.69 491 1146.25C491 1564.81 830.378 1904.18 1248.93 1904.18C1617.06 1904.18 1924.54 1646.44 1986.66 1303.76H1263.87V1088.99H2203.48C2209.04 1105.63 2212 1123.13 2212 1141.25V1251.25C2212 1669.81 1872.62 2009.18 1454.07 2009.18C1035.52 2009.18 696.14 1669.81 696.14 1251.25C696.14 832.69 1035.52 493.315 1454.07 493.315C1651.58 493.315 1831.43 569.94 1965.8 694.315L1821.49 838.628C1723.12 744.5 1591.57 688.315 1448.14 388.315H1248.93Z" fill="white"/>
</svg>
